<svg width="7000" height="6000" viewBox="0 0 7000 6000" fill="current" xmlns="http://www.w3.org/2000/svg">
<path fill-rule="evenodd" clip-rule="evenodd" d="M1000 0H0V1000H1000V0ZM500 922C733.064 922 922 733.064 922 500C922 266.936 733.064 78 500 78C266.936 78 78 266.936 78 500C78 733.064 266.936 922 500 922Z" fill="current"/>
<path fill-rule="evenodd" clip-rule="evenodd" d="M2000 0H1000V1000H2000V0ZM1500 922C1733.06 922 1922 733.064 1922 500C1922 266.936 1733.06 78 1500 78C1266.94 78 1078 266.936 1078 500C1078 733.064 1266.94 922 1500 922Z" fill="current"/>
<path fill-rule="evenodd" clip-rule="evenodd" d="M3000 0H2000V1000H3000V0ZM2500 922C2733.06 922 2922 733.064 2922 500C2922 266.936 2733.06 78 2500 78C2266.94 78 2078 266.936 2078 500C2078 733.064 2266.94 922 2500 922Z" fill="current"/>
<path fill-rule="evenodd" clip-rule="evenodd" d="M5000 0H4000V1000H5000V0ZM4500 922C4733.06 922 4922 733.064 4922 500C4922 266.936 4733.06 78 4500 78C4266.94 78 4078 266.936 4078 500C4078 733.064 4266.94 922 4500 922Z" fill="current"/>
<path fill-rule="evenodd" clip-rule="evenodd" d="M6000 0H5000V1000H6000V0ZM5500 922C5733.06 922 5922 733.064 5922 500C5922 266.936 5733.06 78 5500 78C5266.94 78 5078 266.936 5078 500C5078 733.064 5266.94 922 5500 922Z" fill="current"/>
<path fill-rule="evenodd" clip-rule="evenodd" d="M7000 0H6000V1000H7000V0ZM6500 922C6733.06 922 6922 733.064 6922 500C6922 266.936 6733.06 78 6500 78C6266.94 78 6078 266.936 6078 500C6078 733.064 6266.94 922 6500 922Z" fill="current"/>
<path fill-rule="evenodd" clip-rule="evenodd" d="M4000 0H3000V1000H4000V0ZM3500 922C3733.06 922 3922 733.064 3922 500C3922 266.936 3733.06 78 3500 78C3266.94 78 3078 266.936 3078 500C3078 733.064 3266.94 922 3500 922Z" fill="current"/>
<path fill-rule="evenodd" clip-rule="evenodd" d="M1000 1000H0V2000H1000V1000ZM500 1922C733.064 1922 922 1733.06 922 1500C922 1266.94 733.064 1078 500 1078C266.936 1078 78 1266.94 78 1500C78 1733.06 266.936 1922 500 1922Z" fill="current"/>
<path fill-rule="evenodd" clip-rule="evenodd" d="M2000 1000H1000V2000H2000V1000ZM1500 1922C1733.06 1922 1922 1733.06 1922 1500C1922 1266.94 1733.06 1078 1500 1078C1266.94 1078 1078 1266.94 1078 1500C1078 1733.06 1266.94 1922 1500 1922Z" fill="current"/>
<path fill-rule="evenodd" clip-rule="evenodd" d="M3000 1000H2000V2000H3000V1000ZM2500 1922C2733.06 1922 2922 1733.06 2922 1500C2922 1266.94 2733.06 1078 2500 1078C2266.94 1078 2078 1266.94 2078 1500C2078 1733.06 2266.94 1922 2500 1922Z" fill="current"/>
<path fill-rule="evenodd" clip-rule="evenodd" d="M5000 1000H4000V2000H5000V1000ZM4500 1922C4733.06 1922 4922 1733.06 4922 1500C4922 1266.94 4733.06 1078 4500 1078C4266.94 1078 4078 1266.94 4078 1500C4078 1733.06 4266.94 1922 4500 1922Z" fill="current"/>
<path fill-rule="evenodd" clip-rule="evenodd" d="M6000 1000H5000V2000H6000V1000ZM5500 1922C5733.06 1922 5922 1733.06 5922 1500C5922 1266.94 5733.06 1078 5500 1078C5266.94 1078 5078 1266.94 5078 1500C5078 1733.06 5266.94 1922 5500 1922Z" fill="current"/>
<path fill-rule="evenodd" clip-rule="evenodd" d="M7000 1000H6000V2000H7000V1000ZM6500 1922C6733.06 1922 6922 1733.06 6922 1500C6922 1266.94 6733.06 1078 6500 1078C6266.94 1078 6078 1266.94 6078 1500C6078 1733.06 6266.94 1922 6500 1922Z" fill="current"/>
<path fill-rule="evenodd" clip-rule="evenodd" d="M4000 1000H3000V2000H4000V1000ZM3500 1922C3733.06 1922 3922 1733.06 3922 1500C3922 1266.94 3733.06 1078 3500 1078C3266.94 1078 3078 1266.94 3078 1500C3078 1733.06 3266.94 1922 3500 1922Z" fill="current"/>
<path fill-rule="evenodd" clip-rule="evenodd" d="M1000 2000H0V3000H1000V2000ZM500 2922C733.064 2922 922 2733.06 922 2500C922 2266.94 733.064 2078 500 2078C266.936 2078 78 2266.94 78 2500C78 2733.06 266.936 2922 500 2922Z" fill="current"/>
<path fill-rule="evenodd" clip-rule="evenodd" d="M2000 2000H1000V3000H2000V2000ZM1500 2922C1733.06 2922 1922 2733.06 1922 2500C1922 2266.94 1733.06 2078 1500 2078C1266.94 2078 1078 2266.94 1078 2500C1078 2733.06 1266.94 2922 1500 2922Z" fill="current"/>
<path fill-rule="evenodd" clip-rule="evenodd" d="M3000 2000H2000V3000H3000V2000ZM2500 2922C2733.06 2922 2922 2733.06 2922 2500C2922 2266.94 2733.06 2078 2500 2078C2266.94 2078 2078 2266.94 2078 2500C2078 2733.06 2266.94 2922 2500 2922Z" fill="current"/>
<path fill-rule="evenodd" clip-rule="evenodd" d="M5000 2000H4000V3000H5000V2000ZM4500 2922C4733.06 2922 4922 2733.06 4922 2500C4922 2266.94 4733.06 2078 4500 2078C4266.94 2078 4078 2266.94 4078 2500C4078 2733.06 4266.94 2922 4500 2922Z" fill="current"/>
<path fill-rule="evenodd" clip-rule="evenodd" d="M6000 2000H5000V3000H6000V2000ZM5500 2922C5733.06 2922 5922 2733.06 5922 2500C5922 2266.94 5733.06 2078 5500 2078C5266.94 2078 5078 2266.94 5078 2500C5078 2733.06 5266.94 2922 5500 2922Z" fill="current"/>
<path fill-rule="evenodd" clip-rule="evenodd" d="M7000 2000H6000V3000H7000V2000ZM6500 2922C6733.06 2922 6922 2733.06 6922 2500C6922 2266.94 6733.06 2078 6500 2078C6266.94 2078 6078 2266.94 6078 2500C6078 2733.06 6266.94 2922 6500 2922Z" fill="current"/>
<path fill-rule="evenodd" clip-rule="evenodd" d="M4000 2000H3000V3000H4000V2000ZM3500 2922C3733.06 2922 3922 2733.06 3922 2500C3922 2266.94 3733.06 2078 3500 2078C3266.94 2078 3078 2266.94 3078 2500C3078 2733.06 3266.94 2922 3500 2922Z" fill="current"/>
<path fill-rule="evenodd" clip-rule="evenodd" d="M1000 3000H0V4000H1000V3000ZM500 3922C733.064 3922 922 3733.06 922 3500C922 3266.94 733.064 3078 500 3078C266.936 3078 78 3266.94 78 3500C78 3733.06 266.936 3922 500 3922Z" fill="current"/>
<path fill-rule="evenodd" clip-rule="evenodd" d="M2000 3000H1000V4000H2000V3000ZM1500 3922C1733.06 3922 1922 3733.06 1922 3500C1922 3266.94 1733.06 3078 1500 3078C1266.94 3078 1078 3266.94 1078 3500C1078 3733.06 1266.94 3922 1500 3922Z" fill="current"/>
<path fill-rule="evenodd" clip-rule="evenodd" d="M3000 3000H2000V4000H3000V3000ZM2500 3922C2733.06 3922 2922 3733.06 2922 3500C2922 3266.94 2733.06 3078 2500 3078C2266.94 3078 2078 3266.94 2078 3500C2078 3733.06 2266.94 3922 2500 3922Z" fill="current"/>
<path fill-rule="evenodd" clip-rule="evenodd" d="M5000 3000H4000V4000H5000V3000ZM4500 3922C4733.06 3922 4922 3733.06 4922 3500C4922 3266.94 4733.06 3078 4500 3078C4266.94 3078 4078 3266.94 4078 3500C4078 3733.06 4266.94 3922 4500 3922Z" fill="current"/>
<path fill-rule="evenodd" clip-rule="evenodd" d="M6000 3000H5000V4000H6000V3000ZM5500 3922C5733.06 3922 5922 3733.06 5922 3500C5922 3266.94 5733.06 3078 5500 3078C5266.94 3078 5078 3266.94 5078 3500C5078 3733.06 5266.94 3922 5500 3922Z" fill="current"/>
<path fill-rule="evenodd" clip-rule="evenodd" d="M7000 3000H6000V4000H7000V3000ZM6500 3922C6733.06 3922 6922 3733.06 6922 3500C6922 3266.94 6733.06 3078 6500 3078C6266.94 3078 6078 3266.94 6078 3500C6078 3733.06 6266.94 3922 6500 3922Z" fill="current"/>
<path fill-rule="evenodd" clip-rule="evenodd" d="M4000 3000H3000V4000H4000V3000ZM3500 3922C3733.06 3922 3922 3733.06 3922 3500C3922 3266.94 3733.06 3078 3500 3078C3266.94 3078 3078 3266.94 3078 3500C3078 3733.06 3266.94 3922 3500 3922Z" fill="current"/>
<path fill-rule="evenodd" clip-rule="evenodd" d="M1000 4000H0V5000H1000V4000ZM500 4922C733.064 4922 922 4733.06 922 4500C922 4266.94 733.064 4078 500 4078C266.936 4078 78 4266.94 78 4500C78 4733.06 266.936 4922 500 4922Z" fill="current"/>
<path fill-rule="evenodd" clip-rule="evenodd" d="M2000 4000H1000V5000H2000V4000ZM1500 4922C1733.06 4922 1922 4733.06 1922 4500C1922 4266.94 1733.06 4078 1500 4078C1266.94 4078 1078 4266.94 1078 4500C1078 4733.06 1266.94 4922 1500 4922Z" fill="current"/>
<path fill-rule="evenodd" clip-rule="evenodd" d="M3000 4000H2000V5000H3000V4000ZM2500 4922C2733.06 4922 2922 4733.06 2922 4500C2922 4266.94 2733.06 4078 2500 4078C2266.94 4078 2078 4266.94 2078 4500C2078 4733.06 2266.94 4922 2500 4922Z" fill="current"/>
<path fill-rule="evenodd" clip-rule="evenodd" d="M5000 4000H4000V5000H5000V4000ZM4500 4922C4733.06 4922 4922 4733.06 4922 4500C4922 4266.94 4733.06 4078 4500 4078C4266.94 4078 4078 4266.94 4078 4500C4078 4733.06 4266.94 4922 4500 4922Z" fill="current"/>
<path fill-rule="evenodd" clip-rule="evenodd" d="M6000 4000H5000V5000H6000V4000ZM5500 4922C5733.06 4922 5922 4733.06 5922 4500C5922 4266.94 5733.06 4078 5500 4078C5266.94 4078 5078 4266.94 5078 4500C5078 4733.06 5266.94 4922 5500 4922Z" fill="current"/>
<path fill-rule="evenodd" clip-rule="evenodd" d="M7000 4000H6000V5000H7000V4000ZM6500 4922C6733.06 4922 6922 4733.06 6922 4500C6922 4266.94 6733.06 4078 6500 4078C6266.94 4078 6078 4266.94 6078 4500C6078 4733.06 6266.94 4922 6500 4922Z" fill="current"/>
<path fill-rule="evenodd" clip-rule="evenodd" d="M4000 4000H3000V5000H4000V4000ZM3500 4922C3733.06 4922 3922 4733.06 3922 4500C3922 4266.94 3733.06 4078 3500 4078C3266.94 4078 3078 4266.94 3078 4500C3078 4733.06 3266.94 4922 3500 4922Z" fill="current"/>
<path fill-rule="evenodd" clip-rule="evenodd" d="M1000 5000H0V6000H1000V5000ZM500 5922C733.064 5922 922 5733.06 922 5500C922 5266.94 733.064 5078 500 5078C266.936 5078 78 5266.94 78 5500C78 5733.06 266.936 5922 500 5922Z" fill="current"/>
<path fill-rule="evenodd" clip-rule="evenodd" d="M2000 5000H1000V6000H2000V5000ZM1500 5922C1733.06 5922 1922 5733.06 1922 5500C1922 5266.94 1733.06 5078 1500 5078C1266.94 5078 1078 5266.94 1078 5500C1078 5733.06 1266.94 5922 1500 5922Z" fill="current"/>
<path fill-rule="evenodd" clip-rule="evenodd" d="M3000 5000H2000V6000H3000V5000ZM2500 5922C2733.06 5922 2922 5733.06 2922 5500C2922 5266.94 2733.06 5078 2500 5078C2266.94 5078 2078 5266.94 2078 5500C2078 5733.06 2266.94 5922 2500 5922Z" fill="current"/>
<path fill-rule="evenodd" clip-rule="evenodd" d="M5000 5000H4000V6000H5000V5000ZM4500 5922C4733.06 5922 4922 5733.06 4922 5500C4922 5266.94 4733.06 5078 4500 5078C4266.94 5078 4078 5266.94 4078 5500C4078 5733.06 4266.94 5922 4500 5922Z" fill="current"/>
<path fill-rule="evenodd" clip-rule="evenodd" d="M6000 5000H5000V6000H6000V5000ZM5500 5922C5733.06 5922 5922 5733.06 5922 5500C5922 5266.94 5733.06 5078 5500 5078C5266.94 5078 5078 5266.94 5078 5500C5078 5733.06 5266.94 5922 5500 5922Z" fill="current"/>
<path fill-rule="evenodd" clip-rule="evenodd" d="M7000 5000H6000V6000H7000V5000ZM6500 5922C6733.06 5922 6922 5733.06 6922 5500C6922 5266.94 6733.06 5078 6500 5078C6266.94 5078 6078 5266.94 6078 5500C6078 5733.06 6266.94 5922 6500 5922Z" fill="current"/>
<path fill-rule="evenodd" clip-rule="evenodd" d="M4000 5000H3000V6000H4000V5000ZM3500 5922C3733.06 5922 3922 5733.06 3922 5500C3922 5266.94 3733.06 5078 3500 5078C3266.94 5078 3078 5266.94 3078 5500C3078 5733.06 3266.94 5922 3500 5922Z" fill="current"/>
<rect x="939" width="118" height="6000" fill="current"/>
<rect x="1941" width="118" height="6000" fill="current"/>
<rect x="2941" width="118" height="6000" fill="current"/>
<rect x="3941" width="118" height="6000" fill="current"/>
<rect x="4941" width="118" height="6000" fill="current"/>
<rect x="5941" width="118" height="6000" fill="current"/>
<rect y="1059" width="118" height="7000" transform="rotate(-90 0 1059)" fill="current"/>
<rect y="2059" width="118" height="7000" transform="rotate(-90 0 2059)" fill="current"/>
<rect y="3059" width="118" height="7000" transform="rotate(-90 0 3059)" fill="current"/>
<rect y="4059" width="118" height="7000" transform="rotate(-90 0 4059)" fill="current"/>
<rect y="5059" width="118" height="7000" transform="rotate(-90 0 5059)" fill="current"/>
</svg>
